<?xml version="1.0" encoding="UTF-8" standalone="no"?>
<!-- Created with Inkscape (http://www.inkscape.org/) -->

<svg
   xmlns:dc="http://purl.org/dc/elements/1.1/"
   xmlns:cc="http://creativecommons.org/ns#"
   xmlns:rdf="http://www.w3.org/1999/02/22-rdf-syntax-ns#"
   xmlns:svg="http://www.w3.org/2000/svg"
   xmlns="http://www.w3.org/2000/svg"
   xmlns:sodipodi="http://sodipodi.sourceforge.net/DTD/sodipodi-0.dtd"
   xmlns:inkscape="http://www.inkscape.org/namespaces/inkscape"
   width="400"
   height="150"
   viewBox="0 0 105.83333 39.687501"
   version="1.1"
   id="svg1563"
   inkscape:version="0.92.3 (2405546, 2018-03-11)"
   sodipodi:docname="logo-for-git.svg"
   inkscape:export-filename="/home/devilmaycry/Desktop/Audio-Video-Graphics/textToMorse/github/logo-for-git.png"
   inkscape:export-xdpi="96"
   inkscape:export-ydpi="96">
  <defs
     id="defs1557" />
  <sodipodi:namedview
     id="base"
     pagecolor="#ffffff"
     bordercolor="#666666"
     borderopacity="1.0"
     inkscape:pageopacity="0.0"
     inkscape:pageshadow="2"
     inkscape:zoom="1.979899"
     inkscape:cx="169.55268"
     inkscape:cy="83.251365"
     inkscape:document-units="mm"
     inkscape:current-layer="layer1"
     showgrid="false"
     inkscape:window-width="1920"
     inkscape:window-height="1028"
     inkscape:window-x="0"
     inkscape:window-y="0"
     inkscape:window-maximized="1"
     units="px" />
  <metadata
     id="metadata1560">
    <rdf:RDF>
      <cc:Work
         rdf:about="">
        <dc:format>image/svg+xml</dc:format>
        <dc:type
           rdf:resource="http://purl.org/dc/dcmitype/StillImage" />
        <dc:title />
      </cc:Work>
    </rdf:RDF>
  </metadata>
  <g
     inkscape:label="Layer 1"
     inkscape:groupmode="layer"
     id="layer1"
     transform="translate(0,-257.31248)">
    <g
       transform="matrix(0.05401772,0,0,0.05401772,42.89638,267.13594)"
       id="g923"
       style="fill:#d40000">
      <path
         inkscape:connector-curvature="0"
         d="m 185.5,238.499 c -13.785,0 -25.001,11.215 -25.001,25.001 0,13.785 11.216,25 25.001,25 13.785,0 25.001,-11.215 25.001,-25 0,-13.786 -11.216,-25.001 -25.001,-25.001 z m 0,39.001 c -7.72,0 -14.001,-6.281 -14.001,-14 0,-7.72 6.281,-14.001 14.001,-14.001 7.72,0 14.001,6.281 14.001,14.001 0,7.72 -6.281,14 -14.001,14 z"
         id="path919"
         style="fill:#d40000" />
      <path
         inkscape:connector-curvature="0"
         d="m 366.329,197.894 c -4.9,-6.415 -12.341,-10.094 -20.412,-10.094 -8.073,0 -15.513,3.679 -20.413,10.094 -2.801,3.668 -7.055,5.771 -11.67,5.771 -4.616,0 -8.87,-2.104 -11.672,-5.771 -4.9,-6.415 -12.341,-10.094 -20.412,-10.094 -5.624,0 -10.938,1.79 -15.303,5.042 -14.24,-16.293 -33.307,-28.261 -54.948,-33.656 V 129 h 46.3 c 3.037,0 5.5,-2.462 5.5,-5.5 0,-3.038 -2.463,-5.5 -5.5,-5.5 h -46.3 V 92.06 c 0,-7.8 -4.98,-14.442 -11.92,-16.962 V 29.5 h -11 V 74 H 182.38 V 10.48 C 182.38,4.701 177.679,0 171.9,0 h -13.02 v 11 h 12.5 v 64.112 c -6.92,2.532 -11.881,9.162 -11.881,16.948 V 118 h -46.3 c -3.037,0 -5.5,2.462 -5.5,5.5 0,3.038 2.463,5.5 5.5,5.5 h 46.3 v 30.186 c -21.64,5.396 -40.707,17.363 -54.947,33.656 -4.365,-3.252 -9.679,-5.043 -15.302,-5.043 -8.073,0 -15.513,3.679 -20.413,10.094 -2.801,3.668 -7.055,5.771 -11.67,5.771 -4.616,0 -8.87,-2.104 -11.671,-5.771 -4.9,-6.415 -12.34,-10.094 -20.413,-10.094 -8.071,0 -15.512,3.679 -20.412,10.094 -1.844,2.414 -1.382,5.866 1.032,7.709 2.416,1.845 5.866,1.382 7.71,-1.032 2.801,-3.668 7.055,-5.771 11.67,-5.771 4.616,0 8.87,2.104 11.671,5.771 4.9,6.415 12.34,10.094 20.413,10.094 8.071,0 15.512,-3.679 20.412,-10.094 2.801,-3.668 7.055,-5.771 11.67,-5.771 3.103,0 6.03,0.97 8.475,2.707 -11.243,15.872 -18.288,34.913 -19.522,55.496 H 39.203 c -3.037,0 -5.5,2.462 -5.5,5.5 0,3.038 2.463,5.5 5.5,5.5 H 78.101 C 80.471,325.198 127.734,371 185.5,371 c 57.766,0 105.029,-45.802 107.399,-102.997 h 38.904 c 3.037,0 5.5,-2.462 5.5,-5.5 0,-3.038 -2.463,-5.5 -5.5,-5.5 h -39.005 c -1.233,-20.583 -8.279,-39.624 -19.522,-55.497 2.444,-1.737 5.371,-2.706 8.473,-2.706 4.616,0 8.87,2.104 11.672,5.771 4.9,6.415 12.341,10.094 20.412,10.094 8.073,0 15.513,-3.679 20.413,-10.094 2.801,-3.668 7.055,-5.771 11.671,-5.771 4.615,0 8.869,2.104 11.67,5.771 1.846,2.414 5.296,2.876 7.71,1.032 2.414,-1.843 2.876,-5.295 1.032,-7.709 z M 170.499,106.5 h 7.75 c 3.037,0 5.5,-2.462 5.5,-5.5 0,-3.038 -2.463,-5.5 -5.5,-5.5 h -7.75 v -3.44 c 0,-3.893 3.167,-7.06 7.061,-7.06 h 15.88 c 3.893,0 7.06,3.167 7.06,7.06 v 3.44 h -7.75 c -3.037,0 -5.5,2.462 -5.5,5.5 0,3.038 2.463,5.5 5.5,5.5 h 7.75 v 50.551 c -4.904,-0.687 -9.91,-1.051 -15,-1.051 -5.091,0 -10.097,0.364 -15.001,1.052 z M 185.5,167 c 29.203,0 55.416,13.041 73.126,33.603 -2.535,1.965 -5.649,3.062 -8.959,3.062 -4.616,0 -8.87,-2.104 -11.671,-5.771 -4.9,-6.415 -12.34,-10.093 -20.412,-10.094 0,0 0,0 -0.001,0 -8.071,0 -15.512,3.679 -20.413,10.094 -2.801,3.668 -7.055,5.771 -11.67,5.771 -4.616,0 -8.87,-2.104 -11.671,-5.771 -4.9,-6.415 -12.341,-10.094 -20.412,-10.094 -8.073,0 -15.513,3.679 -20.413,10.094 -2.801,3.668 -7.055,5.771 -11.67,5.771 -3.31,0 -6.424,-1.098 -8.96,-3.062 C 130.084,180.041 156.297,167 185.5,167 Z m 0,193 C 132.29,360 89,316.71 89,263.5 c 0,-20.059 6.154,-38.706 16.67,-54.157 4.432,3.427 9.883,5.323 15.663,5.323 8.073,0 15.513,-3.679 20.413,-10.094 2.801,-3.668 7.055,-5.771 11.671,-5.771 4.615,0 8.869,2.104 11.67,5.771 4.9,6.415 12.34,10.093 20.412,10.094 0,0 0,0 0.001,0 8.071,0 15.512,-3.679 20.413,-10.094 2.801,-3.668 7.055,-5.771 11.67,-5.771 4.616,0 8.87,2.104 11.671,5.771 4.9,6.415 12.34,10.094 20.413,10.094 5.78,0 11.231,-1.896 15.663,-5.323 10.516,15.451 16.67,34.098 16.67,54.157 0,53.21 -43.29,96.5 -96.5,96.5 z"
         id="path921"
         style="fill:#d40000" />
    </g>
  </g>
</svg>
